# xmcd
#
# Track frame offsets:
#	150
#	34865
#	54465
#	69182
#	94397
#	119980
#	135205
#	167050
#	188640
#	227795
#	246270
#	288562
#	309879
#
# Disc length: 4215 seconds
#
# Revision: 0
# Processed by: cddbd v1.5.2PL0 Copyright (c) Steve Scherf et al.
# Submitted via: audiograbber 1.83.01
#
DISCID=b510750d
DTITLE=Guns 'N' Roses - Use Your Ilusion II
DYEAR=1900
DGENRE=
TTITLE0=Cicil War
TTITLE1=14 Yers
TTITLE2=Yesterdays
TTITLE3=Knockin' On Heaven's Door
TTITLE4=Get In The Ring
TTITLE5=Shotgun Blues
TTITLE6=Breakdown
TTITLE7=Pretty Tied Up
TTITLE8=Locomotive
TTITLE9=So Fine
TTITLE10=Estranged
TTITLE11=Don't Cry
TTITLE12=My World
EXTD=
EXTT0=
EXTT1=
EXTT2=
EXTT3=
EXTT4=
EXTT5=
EXTT6=
EXTT7=
EXTT8=
EXTT9=
EXTT10=
EXTT11=
EXTT12=
PLAYORDER=
